<svg width="1190" height="283" viewBox="0 0 1190 283" fill="none" xmlns="http://www.w3.org/2000/svg">
<g clip-path="url(#clip0_336_357007)">
<path d="M669.991 105.461C681.676 105.493 695.098 104.079 706.051 108.244C723.744 114.973 727.922 138.918 715.301 152.223C712.733 154.935 710.473 156.196 707.289 158.056C713.047 166.029 719.665 175.262 724.738 183.546C719.775 183.851 713.785 183.724 708.741 183.742C704.558 182.914 694.488 166.013 691.53 161.555L678.265 161.585C678.358 168.985 678.294 176.385 678.073 183.781L662.855 183.695C661.908 159.714 662.547 129.993 662.762 105.683L669.991 105.461ZM678.213 147.771C686.498 147.807 696.115 148.862 702.565 143.009C705.673 139.012 706.615 136.856 706.039 131.746C704.43 117.538 688.759 119.026 678.242 119.12L678.213 147.771Z" fill="black"/>
<path d="M1021.3 105.478L1032.08 105.458C1032.5 116.143 1032.34 127.069 1032.29 137.779L1072.01 137.756C1071.96 127.077 1071.98 116.4 1072.06 105.721C1077.12 105.346 1082.6 105.426 1087.68 105.657C1088.41 121.603 1087.89 164.554 1087.39 183.067C1087.39 183.443 1086.14 183.612 1085.56 183.751L1072.14 183.661C1071.67 173.776 1071.99 161.647 1071.99 151.599C1058.77 151.524 1045.54 151.531 1032.32 151.619C1032.47 162.336 1032.1 173.109 1032.28 183.787C1027.13 183.788 1021.99 183.731 1016.84 183.615C1016.43 174.533 1015.64 111.761 1017.15 106.279C1018.25 105.27 1019.77 105.483 1021.3 105.478Z" fill="black"/>
<path d="M420.055 105.469L421.224 105.748C422.807 108.063 422.085 115.954 421.956 119.176L384.061 119.21L384.114 137.201L417.331 137.263C417.61 141.652 417.476 146.643 417.449 151.088L384.059 151.114L384.096 170.106C392.96 169.549 405.397 169.916 414.521 169.912L422.377 170.054C422.654 173.854 422.495 179.735 422.511 183.688C405.653 184.132 385.328 183.88 368.417 183.631C367.993 175.465 368.278 164.766 368.275 156.439L368.332 105.719C381.815 104.726 405.641 105.469 420.055 105.469Z" fill="black"/>
<path d="M941.983 104.79C952.023 102.663 966.207 106.243 974.644 111.987C972.354 116.628 970.681 119.713 967.944 124.096C958.659 119.71 949.13 117.159 938.949 120.458C932.796 122.419 927.689 126.772 924.778 132.539C921.553 138.872 921.099 146.664 923.354 153.385C925.434 159.746 929.995 164.999 935.998 167.958C945.167 172.493 953.726 170.938 962.813 167.879C962.552 160.544 962.72 152.184 962.691 144.769L970.652 144.733L977.427 144.852C977.526 155.15 977.508 165.447 977.363 175.744C961.651 187.479 936.439 188.252 920.699 176.114C912.471 169.741 907.154 160.325 905.94 149.987C902.953 126.443 918.694 107.617 941.983 104.79Z" fill="black"/>
<path d="M615.685 105.481C616.993 105.377 617.144 105.439 618.248 106.157C619.491 109.029 618.928 115.744 618.823 119.115C606.418 119.411 592.995 119.182 580.517 119.177L580.526 137.153L614.151 137.253C614.314 141.644 614.204 146.606 614.204 151.041L580.526 151.134L580.572 170.005C589.846 169.575 601.926 169.922 611.415 169.912C618.66 169.908 620.037 170.049 619.422 178.361C619.294 180.068 619.189 181.997 619.061 183.722L565.223 183.654C564.511 175.534 564.898 162.18 564.898 153.771C564.813 137.702 564.873 121.634 565.076 105.567C581.839 105.349 598.899 105.496 615.685 105.481Z" fill="black"/>
<path d="M784.674 104.745C797.562 103.873 805.528 105.042 816.434 112.153C814.011 116.853 812.32 119.605 809.369 124.005C802.053 119.514 789.252 114.901 780.868 120.592C779.096 121.799 777.591 124.098 777.364 126.303C779.473 138.507 817.172 135.991 817.283 158.102C817.376 177.488 807.608 183.245 789.834 184.826C780.792 184.987 770.543 182.665 762.582 178.29C756.487 174.939 763.628 167.301 766.359 163.227C774.738 168.14 783.198 172.465 793.169 170.871C800.763 169.656 806.051 160.994 798.416 155.588C789.531 149.455 780.095 149.741 770.775 143.664C758.602 135.727 759.299 118.696 770.362 110.166C774.622 106.88 779.351 105.705 784.674 104.745Z" fill="black"/>
<path d="M514.773 105.6C520.137 105.336 525.95 105.472 531.353 105.497C529.786 110.938 525.363 120.802 523.022 126.391C515.15 145.551 507.181 164.671 499.116 183.75L489.309 183.732C485.643 176.651 480.674 163.643 477.496 156.024L456.586 105.574L465.523 105.464L473.65 105.441C475.632 109.039 478.775 118.02 480.442 122.165C485.761 135.393 490.325 148.219 494.636 161.82C494.912 161.1 495.141 160.289 495.37 159.548C500.991 141.265 507.963 123.474 514.773 105.6Z" fill="black"/>
<path d="M862.436 105.455L871.048 105.5C872.018 118.771 870.961 137.013 871.35 150.691C871.507 156.303 871.629 178.438 870.885 183.121C869.525 184.056 867.242 183.776 865.481 183.745L855.812 183.711C855.435 158.64 855.371 130.814 855.865 105.782C857.951 105.616 860.321 105.558 862.436 105.455Z" fill="black"/>
<path d="M211.508 20.6002C213.624 20.4615 215.732 20.9778 217.545 22.0789C221.38 24.4085 223.272 28.9482 222.227 33.3124C221.183 37.6766 217.44 40.8668 212.965 41.2066C207.257 41.64 202.285 37.347 201.881 31.6359C201.477 25.9247 205.795 20.9746 211.508 20.6002Z" fill="#49BC79"/>
<path d="M251.264 201.986C253.146 201.746 255.059 202.033 256.788 202.817C260.931 204.694 263.342 209.078 262.708 213.583C262.074 218.088 258.547 221.636 254.047 222.297C248.408 223.124 243.177 219.193 242.403 213.546C241.629 207.899 245.61 202.705 251.264 201.986Z" fill="#49BC79"/>
<path d="M147.386 0.647875C159.437 -0.139048 163.795 16.9684 149.469 21.0626C144.01 20.7833 139.084 18.5205 137.92 12.6104C137.424 10.1351 137.953 7.56424 139.39 5.48785C141.471 2.41557 143.928 1.34799 147.386 0.647875Z" fill="#49BC79"/>
<path d="M257.981 71.1236C263.585 70.5994 268.562 74.6945 269.128 80.2946C269.693 85.8948 265.636 90.9022 260.041 91.5106C254.386 92.1248 249.314 88.0147 248.742 82.3547C248.17 76.6947 252.318 71.653 257.981 71.1236Z" fill="#49BC79"/>
<path d="M23.0653 194.401C28.5927 193.352 33.9309 196.96 35.019 202.48C36.107 208 32.5373 213.365 27.0253 214.492C23.6802 215.176 20.2144 214.147 17.7839 211.75C15.0743 209.076 14.0714 205.12 15.18 201.479C16.2886 197.837 19.3258 195.111 23.0653 194.401Z" fill="#49BC79"/>
<path d="M68.6488 243.81C74.0439 242.159 79.7569 245.186 81.4216 250.577C83.0863 255.968 80.0747 261.69 74.6883 263.368C69.2822 265.053 63.5361 262.027 61.865 256.617C60.1945 251.206 63.2346 245.467 68.6488 243.81Z" fill="#49BC79"/>
<path d="M31.415 61.2355C37.0101 61.0838 41.6885 65.4561 41.9158 71.0493C42.143 76.6425 37.8346 81.3797 32.2458 81.683C28.6841 81.8759 25.279 80.2 23.2589 77.2596C21.1355 74.1693 20.8724 70.1643 22.5733 66.8229C24.2743 63.4809 27.6668 61.3366 31.415 61.2355Z" fill="#49BC79"/>
<path d="M79.4449 15.4238C83.0706 14.7693 86.7679 16.1167 89.1223 18.9505C91.4773 21.7842 92.1252 25.6661 90.8184 29.111C89.5116 32.556 86.4518 35.0313 82.8103 35.59C77.2816 36.4382 72.098 32.6853 71.177 27.1679C70.2566 21.6504 73.9405 16.4173 79.4449 15.4238Z" fill="#49BC79"/>
<path d="M270.625 137.328C274.168 136.184 278.054 137.057 280.766 139.608C283.478 142.159 284.588 145.985 283.661 149.591C282.735 153.198 279.92 156.015 276.314 156.944C270.967 158.32 265.494 155.199 263.956 149.895C262.418 144.592 265.372 139.026 270.625 137.328Z" fill="#49BC79"/>
<path d="M200.573 247.765C206.099 246.548 211.559 250.063 212.74 255.597C213.921 261.131 210.371 266.569 204.83 267.714C199.339 268.849 193.962 265.339 192.792 259.855C191.622 254.371 195.098 248.971 200.573 247.765Z" fill="#49BC79"/>
<path d="M254.153 100.941C258.765 99.058 264.033 101.251 265.948 105.851C267.862 110.452 265.705 115.735 261.117 117.68C256.486 119.644 251.142 117.462 249.21 112.817C247.277 108.173 249.496 102.842 254.153 100.941Z" fill="#49BC79"/>
<path d="M224.434 216.499C229.076 214.775 234.241 217.098 236.033 221.714C237.825 226.33 235.579 231.53 230.99 233.39C227.961 234.617 224.505 234.118 221.947 232.083C219.39 230.048 218.126 226.792 218.641 223.565C219.157 220.337 221.37 217.636 224.434 216.499Z" fill="#49BC79"/>
<path d="M111.476 248.916C116.458 248.291 120.994 251.844 121.582 256.83C122.17 261.816 118.584 266.327 113.594 266.879C111.059 267.159 108.524 266.356 106.613 264.667C104.702 262.978 103.593 260.562 103.558 258.011C103.496 253.405 106.906 249.488 111.476 248.916Z" fill="#49BC79"/>
<path d="M171.556 17.0287C176.48 16.9239 180.583 20.7799 180.783 25.7016C180.984 30.6234 177.208 34.8002 172.292 35.0961C169.026 35.2926 165.908 33.709 164.14 30.9551C162.372 28.2013 162.23 24.7072 163.768 21.8187C165.306 18.9303 168.285 17.0984 171.556 17.0287Z" fill="#49BC79"/>
<path d="M23.3167 104.253C28.1247 102.916 33.1072 105.727 34.4477 110.535C35.7882 115.343 32.9795 120.328 28.173 121.671C23.3625 123.015 18.3734 120.204 17.0318 115.392C15.6902 110.58 18.5046 105.592 23.3167 104.253Z" fill="#49BC79"/>
<path d="M256.476 161.901C261.326 160.789 266.162 163.808 267.295 168.653C268.428 173.498 265.431 178.348 260.592 179.503C255.721 180.664 250.835 177.645 249.695 172.769C248.555 167.893 251.595 163.02 256.476 161.901Z" fill="#49BC79"/>
<path d="M222.603 47.359C225.723 46.4329 229.101 47.2568 231.444 49.5159C233.787 51.7749 234.734 55.1199 233.923 58.2725C233.112 61.4245 230.668 63.8971 227.526 64.7449C222.751 66.0327 217.828 63.2416 216.481 58.4829C215.133 53.7241 217.862 48.7662 222.603 47.359Z" fill="#49BC79"/>
<path d="M24.6018 167.557C29.3826 166.617 34.0474 169.639 35.1439 174.387C36.2406 179.134 33.3737 183.897 28.6648 185.148C25.4782 185.996 22.0832 185.039 19.8079 182.652C17.5326 180.265 16.7388 176.829 17.7369 173.685C18.735 170.543 21.3664 168.193 24.6018 167.557Z" fill="#49BC79"/>
<path d="M56.0959 219.944C59.2007 218.942 62.6051 219.694 64.9991 221.911C67.3924 224.128 68.4029 227.466 67.6411 230.639C66.8794 233.811 64.4639 236.325 61.3245 237.214C56.5913 238.553 51.658 235.854 50.2326 231.146C48.8073 226.438 51.4151 221.456 56.0959 219.944Z" fill="#49BC79"/>
<path d="M171.864 247.756C174.994 246.712 178.445 247.463 180.859 249.713C183.273 251.963 184.265 255.352 183.445 258.549C182.624 261.745 180.124 264.238 176.925 265.048C174.223 265.732 171.357 265.127 169.161 263.41C166.965 261.693 165.687 259.056 165.699 256.269C165.716 252.403 168.196 248.978 171.864 247.756Z" fill="#49BC79"/>
<path d="M55.5942 49.6791C60.4627 48.9956 64.9799 52.3422 65.7445 57.199C66.5092 62.0561 63.2384 66.6288 58.3953 67.4744C55.1901 68.034 51.9321 66.8212 49.8727 64.3015C47.8132 61.7818 47.2726 58.3475 48.4584 55.3173C49.6441 52.2868 52.372 50.1316 55.5942 49.6791Z" fill="#49BC79"/>
<path d="M106.923 18.2075C111.669 16.9029 116.581 19.6637 117.934 24.3969C119.288 29.13 116.578 34.0705 111.859 35.4728C108.764 36.3928 105.412 35.579 103.083 33.3416C100.753 31.1042 99.8049 27.7879 100.599 24.6571C101.394 21.5263 103.808 19.0635 106.923 18.2075Z" fill="#49BC79"/>
<path d="M103.57 42.1055C107.894 41.1419 112.186 43.8493 113.179 48.1675C114.172 52.4858 111.495 56.7964 107.184 57.8196C102.831 58.8529 98.4692 56.1431 97.4663 51.7826C96.4634 47.4219 99.2025 43.0786 103.57 42.1055Z" fill="#49BC79"/>
<path d="M177.489 225.786C181.76 224.972 185.907 227.697 186.855 231.941C187.803 236.185 185.21 240.416 180.997 241.496C178.153 242.225 175.136 241.349 173.127 239.207C171.117 237.066 170.432 234 171.34 231.207C172.248 228.414 174.604 226.337 177.489 225.786Z" fill="#49BC79"/>
<path d="M154.72 35.6608C158.955 35.0868 162.899 37.928 163.695 42.1271C164.492 46.3262 161.863 50.4144 157.712 51.4315C154.825 52.139 151.784 51.195 149.804 48.9772C147.825 46.7594 147.231 43.6301 148.261 40.8414C149.29 38.0527 151.775 36.0601 154.72 35.6608Z" fill="#49BC79"/>
<path d="M232.017 72.8822C236.299 72.4022 240.196 75.3873 240.849 79.6463C241.502 83.9052 238.678 87.9207 234.449 88.7459C231.557 89.3095 228.588 88.2444 226.714 85.9705C224.84 83.696 224.363 80.5784 225.469 77.8472C226.575 75.1159 229.089 73.2105 232.017 72.8822Z" fill="#49BC79"/>
<path d="M232.36 96.6651C236.68 95.7958 240.892 98.5776 241.79 102.893C242.689 107.208 239.935 111.439 235.627 112.366C231.277 113.302 226.997 110.516 226.091 106.16C225.184 101.804 227.998 97.542 232.36 96.6651Z" fill="#49BC79"/>
<path d="M78.3551 212.395C82.5009 211.173 86.8698 213.458 88.2301 217.561C89.5903 221.663 87.4526 226.107 83.3975 227.604C80.6514 228.617 77.5712 228.053 75.3626 226.132C73.154 224.21 72.168 221.238 72.7915 218.377C73.4144 215.516 75.5474 213.223 78.3551 212.395Z" fill="#49BC79"/>
<path d="M218.007 194.982C220.712 193.971 223.751 194.494 225.962 196.351C228.174 198.207 229.215 201.111 228.688 203.95C228.161 206.789 226.147 209.125 223.417 210.064C219.272 211.49 214.75 209.319 213.27 205.193C211.79 201.067 213.901 196.516 218.007 194.982Z" fill="#49BC79"/>
<path d="M79.6543 43.1554C83.8821 42.0566 88.211 44.5473 89.3858 48.7548C90.5607 52.9624 88.1488 57.3357 83.9634 58.5863C81.1883 59.4161 78.1814 58.6822 76.0995 56.6681C74.0175 54.6539 73.1849 51.6727 73.9222 48.8711C74.659 46.0696 76.8513 43.8842 79.6543 43.1554Z" fill="#49BC79"/>
<path d="M135.653 24.7236C139.973 25.1493 143.167 28.9374 142.858 33.2668C142.549 37.5963 138.849 40.8923 134.513 40.7003C131.602 40.5714 128.991 38.8722 127.694 36.263C126.397 33.6538 126.619 30.546 128.273 28.1475C129.927 25.7489 132.754 24.4377 135.653 24.7236Z" fill="#49BC79"/>
<path d="M40.9883 86.2877C45.1486 84.9372 49.6231 87.1739 51.0401 91.3125C52.4571 95.4506 50.2925 99.9612 46.1775 101.444C43.4564 102.424 40.4181 101.862 38.2283 99.9722C36.0386 98.0824 35.0376 95.1589 35.6095 92.3236C36.1814 89.4878 38.2373 87.1808 40.9883 86.2877Z" fill="#49BC79"/>
<path d="M250.9 126.896C255.239 126.382 259.189 129.443 259.775 133.774C260.36 138.105 257.366 142.105 253.045 142.762C250.187 143.197 247.316 142.056 245.535 139.778C243.754 137.5 243.339 134.438 244.452 131.768C245.563 129.099 248.028 127.237 250.9 126.896Z" fill="#49BC79"/>
<path d="M238.557 182.18C242.778 180.935 247.21 183.335 248.477 187.549C249.743 191.764 247.366 196.21 243.158 197.497C238.92 198.794 234.435 196.397 233.16 192.151C231.885 187.906 234.306 183.433 238.557 182.18Z" fill="#49BC79"/>
<path d="M237.755 148.516C241.856 146.819 246.555 148.787 248.223 152.901C249.891 157.015 247.889 161.699 243.763 163.338C239.68 164.96 235.053 162.983 233.402 158.91C231.751 154.838 233.695 150.196 237.755 148.516Z" fill="#49BC79"/>
<path d="M60.6284 73.5968C64.7992 72.0592 69.4233 74.2192 70.9201 78.4049C72.4174 82.5906 70.2123 87.1942 66.0131 88.651C61.8701 90.0881 57.3435 87.9194 55.8666 83.7906C54.3898 79.6613 56.5143 75.1135 60.6284 73.5968Z" fill="#49BC79"/>
<path d="M188.175 36.337C190.895 35.3619 193.93 35.9322 196.112 37.8285C198.293 39.7247 199.28 42.6512 198.694 45.4815C198.107 48.3117 196.038 50.6044 193.282 51.477C189.131 52.7918 184.691 50.54 183.299 46.4137C181.907 42.2873 184.076 37.8061 188.175 36.337Z" fill="#49BC79"/>
<path d="M199.855 225.184C202.543 224.168 205.57 224.675 207.78 226.512C209.99 228.348 211.043 231.231 210.538 234.06C210.032 236.89 208.045 239.229 205.335 240.185C201.208 241.642 196.678 239.506 195.176 235.395C193.675 231.284 195.761 226.73 199.855 225.184Z" fill="#49BC79"/>
<path d="M40.9333 122.236C45.1244 121.034 49.5045 123.417 50.7733 127.588C52.0421 131.76 49.7306 136.178 45.5803 137.515C42.8354 138.398 39.8274 137.733 37.7106 135.775C35.594 133.816 34.6975 130.869 35.3652 128.063C36.033 125.258 38.1613 123.03 40.9333 122.236Z" fill="#49BC79"/>
<path d="M89.8729 232.848C92.4528 231.572 95.519 231.785 97.899 233.403C100.278 235.021 101.603 237.796 101.364 240.664C101.127 243.532 99.3632 246.05 96.7491 247.254C92.784 249.081 88.0879 247.383 86.207 243.443C84.3267 239.503 85.9595 234.783 89.8729 232.848Z" fill="#49BC79"/>
<path d="M48.5159 196.139C52.6639 194.738 57.1662 196.941 58.607 201.075C60.0474 205.21 57.8891 209.733 53.7688 211.214C49.5922 212.715 44.9937 210.52 43.5332 206.328C42.0728 202.137 44.3114 197.56 48.5159 196.139Z" fill="#49BC79"/>
<path d="M148.21 242.577C152.564 241.986 156.577 245.025 157.188 249.377C157.798 253.728 154.776 257.755 150.428 258.385C146.052 259.019 141.995 255.974 141.381 251.595C140.766 247.216 143.829 243.172 148.21 242.577Z" fill="#49BC79"/>
<path d="M47.7729 172.339C51.9569 171.064 56.3871 173.398 57.7016 177.571C59.0162 181.742 56.7241 186.195 52.5648 187.549C48.3499 188.92 43.8254 186.591 42.4933 182.363C41.1612 178.135 43.533 173.632 47.7729 172.339Z" fill="#49BC79"/>
<path d="M202.555 55.9515C205.45 55.5112 208.354 56.6967 210.114 59.0378C211.875 61.3791 212.208 64.4979 210.981 67.1577C209.754 69.818 207.166 71.5898 204.243 71.7705C199.992 72.0338 196.286 68.9045 195.834 64.6688C195.382 60.4331 198.344 56.5917 202.555 55.9515Z" fill="#49BC79"/>
<path d="M30.4014 143.171C34.5707 142.211 38.7524 144.721 39.8679 148.851C40.9834 152.982 38.6333 157.255 34.5478 158.525C31.765 159.39 28.7319 158.665 26.6416 156.634C24.5512 154.603 23.7381 151.592 24.522 148.785C25.3059 145.978 27.5614 143.825 30.4014 143.171Z" fill="#49BC79"/>
<path d="M125.79 232.147C129.945 230.802 134.408 233.06 135.785 237.205C137.163 241.35 134.941 245.831 130.807 247.242C126.627 248.669 122.085 246.415 120.692 242.224C119.299 238.032 121.587 233.508 125.79 232.147Z" fill="#49BC79"/>
<path d="M108.319 218.39C112.438 217.312 116.657 219.75 117.781 223.857C118.905 227.964 116.514 232.21 112.421 233.38C109.731 234.148 106.837 233.412 104.841 231.452C102.846 229.492 102.058 226.611 102.777 223.908C103.497 221.205 105.613 219.098 108.319 218.39Z" fill="#49BC79"/>
<path d="M171.845 49.7245C174.592 49.0175 177.506 49.8648 179.446 51.9346C181.387 54.0043 182.044 56.9673 181.162 59.6636C180.28 62.3599 177.998 64.3607 175.209 64.8825C171.092 65.6537 167.105 63.0207 166.197 58.9308C165.29 54.8411 167.788 50.7683 171.845 49.7245Z" fill="#49BC79"/>
<path d="M56.5116 104.301C60.7517 104.166 64.3147 107.459 64.5135 111.697C64.7116 115.935 61.4716 119.547 57.2377 119.808C54.4423 119.981 51.7707 118.635 50.2468 116.284C48.7228 113.934 48.5829 110.945 49.8806 108.463C51.1783 105.981 53.7123 104.39 56.5116 104.301Z" fill="#49BC79"/>
<path d="M229.355 119.359C232.128 118.743 235.015 119.692 236.882 121.832C238.749 123.973 239.296 126.963 238.308 129.626C237.321 132.289 234.956 134.2 232.145 134.605C228.019 135.2 224.161 132.427 223.411 128.326C222.66 124.225 225.286 120.265 229.355 119.359Z" fill="#49BC79"/>
<path d="M197.586 203.791C200.266 202.942 203.195 203.611 205.24 205.539C207.285 207.468 208.126 210.353 207.436 213.078C206.746 215.804 204.635 217.941 201.918 218.664C197.851 219.747 193.664 217.385 192.487 213.344C191.311 209.303 193.574 205.062 197.586 203.791Z" fill="#49BC79"/>
<path d="M154.482 223.535C157.189 222.743 160.112 223.487 162.11 225.478C164.108 227.469 164.864 230.389 164.082 233.099C163.301 235.809 161.106 237.879 158.355 238.499C154.282 239.418 150.214 236.937 149.168 232.894C148.122 228.851 150.475 224.708 154.482 223.535Z" fill="#49BC79"/>
<path d="M209.029 77.5489C212.851 75.748 217.411 77.3577 219.255 81.1599C221.098 84.9615 219.539 89.5389 215.759 91.4258C213.276 92.6647 210.317 92.4735 208.014 90.9248C205.711 89.3762 204.417 86.7089 204.627 83.9411C204.837 81.1732 206.518 78.732 209.029 77.5489Z" fill="#49BC79"/>
<path d="M69.5534 192.015C73.544 190.71 77.8456 192.839 79.2285 196.804C80.6114 200.769 78.5672 205.112 74.63 206.572C72.0141 207.542 69.078 207.023 66.9531 205.214C64.8282 203.406 63.8462 200.591 64.386 197.853C64.9252 195.115 66.9014 192.882 69.5534 192.015Z" fill="#49BC79"/>
<path d="M124.881 45.6831C127.457 44.6397 130.396 45.0644 132.572 46.7946C134.747 48.5248 135.823 51.2924 135.386 54.0378C134.95 56.7832 133.07 59.0807 130.465 60.0512C126.515 61.5226 122.117 59.5491 120.59 55.6202C119.063 51.6915 120.975 47.265 124.881 45.6831Z" fill="#49BC79"/>
<path d="M51.3598 150.09C54.0816 149.506 56.9066 150.436 58.7487 152.524C60.5912 154.61 61.1641 157.529 60.2472 160.158C59.3303 162.787 57.0661 164.715 54.3255 165.204C50.19 165.94 46.2274 163.226 45.4185 159.104C44.6096 154.982 47.2529 150.972 51.3598 150.09Z" fill="#49BC79"/>
<path d="M224.712 166.46C228.719 165.087 233.083 167.21 234.477 171.21C235.87 175.211 233.769 179.587 229.776 181C225.754 182.424 221.341 180.304 219.938 176.275C218.535 172.246 220.676 167.844 224.712 166.46Z" fill="#49BC79"/>
<path d="M83.4927 64.7524C87.6926 64.3346 91.4444 67.3819 91.8965 71.5787C92.3486 75.7755 89.3323 79.5521 85.1394 80.0379C80.8983 80.5301 77.0686 77.4711 76.6113 73.2256C76.154 68.98 79.244 65.1755 83.4927 64.7524Z" fill="#49BC79"/>
<path d="M102.251 62.8481C106.124 62.3989 109.621 65.1964 110.032 69.0747C110.443 72.953 107.612 76.4217 103.73 76.7953C99.9019 77.1638 96.4911 74.3797 96.0856 70.5548C95.68 66.7299 98.4301 63.2915 102.251 62.8481Z" fill="#49BC79"/>
<path d="M60.6947 132.98C64.4262 133.293 67.249 136.489 67.1003 140.231C66.9515 143.972 63.8841 146.934 60.1398 146.95C57.5665 146.962 55.1947 145.559 53.9641 143.299C52.7336 141.038 52.843 138.285 54.2489 136.13C55.655 133.974 58.1305 132.765 60.6947 132.98Z" fill="#49BC79"/>
<path d="M69.1233 93.9125C71.5358 92.9409 74.2889 93.3895 76.2679 95.0771C78.2476 96.764 79.1267 99.411 78.5503 101.948C77.9733 104.484 76.0367 106.491 73.5219 107.156C69.9525 108.101 66.2639 106.106 65.1001 102.601C63.9362 99.0972 65.698 95.2915 69.1233 93.9125Z" fill="#49BC79"/>
<path d="M143.928 53.104C147.723 52.3091 151.44 54.7552 152.212 58.5553C152.983 62.3558 150.514 66.0575 146.709 66.8053C142.938 67.5463 139.276 65.1039 138.511 61.3365C137.747 57.5697 140.166 53.8921 143.928 53.104Z" fill="#49BC79"/>
<path d="M96.5091 204.31C98.8891 203.495 101.524 204.023 103.406 205.693C105.288 207.364 106.125 209.917 105.598 212.378C105.07 214.838 103.26 216.825 100.859 217.577C97.2145 218.719 93.3284 216.72 92.1384 213.091C90.9484 209.461 92.8955 205.549 96.5091 204.31Z" fill="#49BC79"/>
<path d="M183.355 65.5247C186.934 64.4718 190.708 66.4179 191.924 69.9441C193.142 73.4702 191.372 77.3305 187.906 78.7089C185.517 79.6596 182.799 79.2197 180.831 77.5641C178.865 75.9091 177.966 73.3064 178.493 70.7896C179.021 68.2734 180.889 66.2505 183.355 65.5247Z" fill="#49BC79"/>
<path d="M223.083 137.6C225.578 137.3 228.043 138.366 229.533 140.391C231.024 142.415 231.31 145.085 230.282 147.38C229.254 149.674 227.072 151.239 224.569 151.474C220.767 151.832 217.384 149.067 216.978 145.271C216.571 141.474 219.292 138.055 223.083 137.6Z" fill="#49BC79"/>
<path d="M212.939 96.7574C216.615 95.651 220.495 97.7238 221.619 101.396C222.743 105.067 220.689 108.957 217.023 110.099C213.333 111.249 209.41 109.177 208.279 105.48C207.147 101.783 209.237 97.8714 212.939 96.7574Z" fill="#49BC79"/>
<path d="M210.076 178.749C212.471 177.989 215.091 178.577 216.932 180.287C218.772 181.998 219.551 184.567 218.968 187.012C218.386 189.457 216.533 191.399 214.118 192.096C210.453 193.154 206.618 191.069 205.512 187.418C204.406 183.766 206.439 179.903 210.076 178.749Z" fill="#49BC79"/>
<path d="M179.57 207.079C183.303 206.227 187.025 208.545 187.907 212.273C188.788 216 186.498 219.74 182.778 220.65C179.018 221.57 175.228 219.249 174.337 215.482C173.446 211.714 175.795 207.942 179.57 207.079Z" fill="#49BC79"/>
<path d="M66.762 174.014C69.1623 173.036 71.9078 173.472 73.8869 175.146C75.8665 176.82 76.7526 179.455 76.1861 181.985C75.6201 184.515 73.6957 186.521 71.1919 187.192C67.6399 188.143 63.9607 186.169 62.7887 182.684C61.6173 179.198 63.357 175.402 66.762 174.014Z" fill="#49BC79"/>
<path d="M138.59 216.892C141.087 216.75 143.466 217.964 144.816 220.069C146.166 222.174 146.277 224.844 145.105 227.053C143.934 229.263 141.663 230.669 139.163 230.734C135.381 230.831 132.221 227.875 132.065 224.095C131.908 220.315 134.813 217.109 138.59 216.892Z" fill="#49BC79"/>
<path d="M191.113 82.8201C193.149 81.9287 195.509 82.2239 197.262 83.5895C199.015 84.9545 199.88 87.1703 199.515 89.3628C199.15 91.5547 197.614 93.3707 195.513 94.0942C192.441 95.1524 189.081 93.5968 187.9 90.5698C186.719 87.5428 188.137 84.1229 191.113 82.8201Z" fill="#49BC79"/>
<path d="M211.708 115.953C214.778 114.689 218.292 116.133 219.586 119.19C220.88 122.247 219.47 125.776 216.427 127.1C213.34 128.442 209.751 127.009 208.439 123.909C207.127 120.81 208.596 117.235 211.708 115.953Z" fill="#49BC79"/>
<path d="M67.3705 119.451C69.3426 118.492 71.6796 118.675 73.4774 119.93C75.2758 121.186 76.2537 123.317 76.0323 125.499C75.8115 127.681 74.4263 129.572 72.4129 130.442C69.3955 131.744 65.8906 130.399 64.5199 127.411C63.1497 124.424 64.4153 120.889 67.3705 119.451Z" fill="#49BC79"/>
<path d="M194.343 187.898C196.465 187.284 198.753 187.878 200.309 189.447C201.865 191.015 202.44 193.308 201.81 195.425C201.18 197.542 199.443 199.147 197.284 199.609C194.102 200.288 190.955 198.327 190.163 195.172C189.37 192.017 191.219 188.802 194.343 187.898Z" fill="#49BC79"/>
<path d="M211.386 154.385C213.358 153.422 215.698 153.604 217.496 154.862C219.295 156.12 220.27 158.254 220.043 160.437C219.817 162.62 218.423 164.508 216.405 165.37C213.391 166.654 209.903 165.303 208.542 162.323C207.18 159.344 208.442 155.822 211.386 154.385Z" fill="#49BC79"/>
<path d="M88.3411 189.201C91.4492 188.008 94.9367 189.558 96.1331 192.665C97.3295 195.773 95.7833 199.262 92.6776 200.462C89.5672 201.664 86.0721 200.115 84.8734 197.003C83.6753 193.89 85.2279 190.397 88.3411 189.201Z" fill="#49BC79"/>
<path d="M68.371 156.682C70.4633 155.987 72.7684 156.489 74.3826 157.991C75.9961 159.494 76.662 161.757 76.1188 163.894C75.5749 166.031 73.909 167.701 71.7736 168.25C68.6255 169.059 65.4029 167.229 64.4855 164.11C63.568 160.991 65.2861 157.707 68.371 156.682Z" fill="#49BC79"/>
<path d="M120.798 64.7389C124.059 64.5751 126.857 67.0361 127.111 70.2908C127.366 73.5451 124.984 76.4111 121.738 76.7563C119.557 76.9881 117.421 76.0165 116.163 74.2191C114.904 72.4218 114.722 70.0828 115.685 68.1123C116.649 66.1411 118.607 64.8493 120.798 64.7389Z" fill="#49BC79"/>
<path d="M158.438 64.2003C161.506 63.0206 164.953 64.5176 166.186 67.5649C167.418 70.6122 165.981 74.0855 162.955 75.3698C160.951 76.2211 158.644 75.9247 156.92 74.5946C155.197 73.2644 154.325 71.1079 154.639 68.9532C154.953 66.799 156.406 64.9819 158.438 64.2003Z" fill="#49BC79"/>
<path d="M161.691 207.062C163.804 206.537 166.037 207.193 167.53 208.778C169.022 210.364 169.543 212.632 168.89 214.71C168.238 216.788 166.514 218.352 164.383 218.8C161.171 219.475 158.01 217.453 157.276 214.253C156.542 211.053 158.506 207.855 161.691 207.062Z" fill="#49BC79"/>
<path d="M121.652 208.315C124.682 207.111 128.12 208.54 129.404 211.536C130.688 214.532 129.353 218.007 126.392 219.371C124.405 220.287 122.077 220.052 120.314 218.757C118.55 217.462 117.628 215.312 117.906 213.141C118.185 210.971 119.619 209.123 121.652 208.315Z" fill="#49BC79"/>
<path d="M86.4786 86.2719C88.5826 85.7472 90.8057 86.3957 92.2972 87.9699C93.7882 89.5441 94.3158 91.7994 93.6784 93.8717C93.0404 95.9445 91.3362 97.5123 89.2177 97.976C86.0085 98.6774 82.8307 96.6726 82.0817 93.4736C81.3333 90.2746 83.2915 87.0674 86.4786 86.2719Z" fill="#49BC79"/>
<path d="M134.92 69.4745C136.793 68.7644 138.904 69.1241 140.436 70.4142C141.968 71.7042 142.682 73.7224 142.3 75.6889C141.92 77.6554 140.504 79.2615 138.602 79.8868C135.75 80.823 132.672 79.3104 131.672 76.4804C130.671 73.6504 132.114 70.5391 134.92 69.4745Z" fill="#49BC79"/>
<path d="M170.212 75.8381C172.069 75.1158 174.171 75.4499 175.712 76.7121C177.253 77.9743 177.995 79.9686 177.654 81.9316C177.313 83.8946 175.94 85.5211 174.063 86.1882C171.219 87.1988 168.091 85.739 167.038 82.9108C165.986 80.0819 167.4 76.9323 170.212 75.8381Z" fill="#49BC79"/>
<path d="M110.808 197.264C113.752 196.48 116.773 198.239 117.546 201.187C118.318 204.135 116.548 207.15 113.598 207.911C110.663 208.669 107.668 206.91 106.899 203.978C106.131 201.045 107.879 198.043 110.808 197.264Z" fill="#49BC79"/>
<path d="M197.227 98.5573C199.21 98.2743 201.19 99.0913 202.396 100.69C203.603 102.29 203.845 104.418 203.029 106.247C202.212 108.076 200.467 109.318 198.471 109.487C195.503 109.74 192.874 107.586 192.537 104.627C192.201 101.668 194.279 98.978 197.227 98.5573Z" fill="#49BC79"/>
<path d="M72.4859 141.431C74.4359 140.762 76.5962 141.24 78.0814 142.67C79.5672 144.099 80.1273 146.241 79.5329 148.215C78.9385 150.189 77.2894 151.664 75.2616 152.036C72.4324 152.554 69.6823 150.804 68.9542 148.022C68.2256 145.239 69.7659 142.365 72.4859 141.431Z" fill="#49BC79"/>
<path d="M84.3983 174.005C87.3141 173.159 90.3629 174.844 91.1978 177.764C92.0328 180.683 90.3361 183.725 87.4134 184.549C84.5064 185.368 81.4849 183.682 80.6546 180.779C79.8243 177.875 81.4983 174.847 84.3983 174.005Z" fill="#49BC79"/>
<path d="M146.034 203.651C148.917 202.891 151.877 204.576 152.697 207.442C153.517 210.309 151.894 213.305 149.046 214.185C147.149 214.77 145.085 214.284 143.649 212.914C142.213 211.544 141.629 209.505 142.124 207.583C142.62 205.661 144.115 204.156 146.034 203.651Z" fill="#49BC79"/>
<path d="M80.9392 107.742C83.9404 107.572 86.5168 109.855 86.7097 112.854C86.9026 115.854 84.6394 118.448 81.6411 118.664C78.6115 118.881 75.984 116.589 75.7893 113.557C75.5941 110.525 77.9061 107.915 80.9392 107.742Z" fill="#49BC79"/>
<path d="M104.332 80.5806C107.253 79.7711 110.275 81.4953 111.064 84.4223C111.853 87.3488 110.108 90.3589 107.177 91.1283C104.273 91.8902 101.299 90.166 100.517 87.2669C99.7353 84.3683 101.439 81.382 104.332 80.5806Z" fill="#49BC79"/>
<path d="M208.036 132.195C210.784 131.072 213.925 132.355 215.102 135.08C216.279 137.805 215.06 140.971 212.359 142.202C210.563 143.021 208.465 142.805 206.874 141.638C205.282 140.47 204.446 138.534 204.687 136.576C204.929 134.617 206.209 132.941 208.036 132.195Z" fill="#49BC79"/>
<path d="M200.288 166.534C202.062 165.64 204.182 165.782 205.82 166.906C207.458 168.029 208.356 169.955 208.161 171.933C207.967 173.91 206.712 175.625 204.886 176.407C202.181 177.567 199.043 176.368 197.801 173.7C196.558 171.031 197.659 167.858 200.288 166.534Z" fill="#49BC79"/>
<path d="M179.734 192.682C182.64 192.288 185.336 194.265 185.834 197.155C186.332 200.046 184.453 202.811 181.583 203.413C179.633 203.822 177.615 203.132 176.321 201.616C175.028 200.1 174.666 197.998 175.377 196.136C176.088 194.275 177.759 192.95 179.734 192.682Z" fill="#49BC79"/>
<path d="M1122.52 105.755C1130.73 105.114 1141.87 105.395 1150.3 105.396C1163.53 105.289 1176.77 105.39 1190 105.699V118.908C1184.59 119.56 1170.42 119.206 1164.33 119.185C1164.36 136.887 1165.22 166.581 1164.09 183.665C1158.99 183.873 1153.83 183.724 1148.73 183.634C1148.34 178.91 1148.36 173.888 1148.4 169.136C1148.52 152.57 1148.12 135.904 1148.54 119.348C1140.71 118.915 1130.62 119.196 1122.63 119.205C1122.37 115.049 1122.5 109.988 1122.52 105.755Z" fill="black"/>
<path d="M0 137.024C1.1933 130.618 4.58227 125.157 12.0138 126.676C14.9284 127.271 17.4833 129.008 19.1079 131.5C24.247 139.302 17.9418 144.942 10.8639 147.525C4.63407 145.399 1.7986 144.243 0 137.43V137.024Z" fill="#49BC79"/>
<path d="M132.506 283C129.762 281.172 126.912 278.979 126.35 275.543C125.453 270.045 127.141 264.385 133.128 263.264C136.279 262.691 139.527 263.392 142.162 265.212C150.037 270.709 147.158 279.228 139.286 283H132.506Z" fill="#49BC79"/>
</g>
<defs>
<clipPath id="clip0_336_357007">
<rect width="1190" height="283" fill="white"/>
</clipPath>
</defs>
</svg>
